<svg xmlns="http://www.w3.org/2000/svg" width="15" height="15" viewBox="0 0 16 16">
  <metadata><?xpacket begin="﻿" id="W5M0MpCehiHzreSzNTczkc9d"?>
<x:xmpmeta xmlns:x="adobe:ns:meta/" x:xmptk="Adobe XMP Core 5.6-c138 79.159824, 2016/09/14-01:09:01        ">
   <rdf:RDF xmlns:rdf="http://www.w3.org/1999/02/22-rdf-syntax-ns#">
      <rdf:Description rdf:about=""/>
   </rdf:RDF>
</x:xmpmeta>
                                                                                                    
                                                                                                    
                                                                                                    
                                                                                                    
                                                                                                    
                                                                                                    
                                                                                                    
                                                                                                    
                                                                                                    
                                                                                                    
                                                                                                    
                                                                                                    
                                                                                                    
                                                                                                    
                                                                                                    
                                                                                                    
                                                                                                    
                                                                                                    
                                                                                                    
                                                                                                    
                           
<?xpacket end="w"?></metadata>
<defs>
    <style>
      .cls-1 {
        fill: #ed7364;
        fill-rule: evenodd;
      }
    </style>
  </defs>
  <path id="icon" class="cls-1" d="M1527.52,34.223c-1.63-1.163-2.24-1.712-1.2-2.634s1.87-1.668,1.87-3.381a3.222,3.222,0,0,0-1.41-2.589,3.1,3.1,0,0,0,1.57-.155,5.945,5.945,0,0,0,.78-0.5h-5.2c-1.05,0-3.94,1.185-3.94,3.95s3,3.359,4.09,3.315a1.263,1.263,0,0,0,.24,1.776c0.33,0.352.26,0.461-.13,0.461s-5.23.053-5.23,3.514,6.43,3.711,8.54,1.845A3.482,3.482,0,0,0,1527.52,34.223Zm-3.09-2.679c-2.59,0-3.77-6.057-.72-6.057C1526.08,25.4,1527.87,31.544,1524.43,31.544Zm-0.31,8.474c-2.15,0-3.31-1.075-3.31-2.678s1.57-2.394,4.51-2.394c0.8,0.614,2.22,1.36,2.22,2.855S1526.27,40.018,1524.12,40.018ZM1533.02,25v1.97h1.95v1.022h-1.95v1.973H1532V27.992h-1.99V26.97H1532V25h1.02Z" transform="translate(-1518.97 -24.969)"/>
</svg>
